<svg width="202" height="192" viewBox="0 0 202 192" fill="none" xmlns="http://www.w3.org/2000/svg">
<path d="M154.808 1H101.246V51.6995C101.246 64.9897 108.443 76.4048 119.919 85.6632C130.569 92.9404 137.372 94.1658 150.877 95.0155C166.929 94.7032 175.218 92.8712 188.224 81.2332C195.498 73.5663 201 61.802 201 51.6995C201 39.1633 196.935 25.6689 188.224 16.2591C179.512 6.84922 171.025 1.00002 154.808 1Z" fill="white" stroke="white"/>
<path d="M200.509 145.223V95.5078H145.472C132.204 95.5078 120.808 102.717 111.565 114.212C104.3 124.881 102.094 131.695 101.246 145.223C101.558 161.302 103.878 165.667 115.496 178.694C123.15 185.981 135.386 191 145.472 191C157.987 191 171.459 189.389 180.853 180.663C190.247 171.937 198.052 165.404 200.509 145.223Z" fill="white" stroke="white"/>
<path d="M1.9828 48.7461L1.9828 95.0156H57.511C70.7789 95.0156 82.1748 87.8061 91.4177 76.3109C98.6826 65.6424 99.4146 62.2742 100.263 48.7461C99.9511 32.6672 98.1221 26.8252 86.5037 13.7979C78.8497 6.51151 67.5966 1 57.511 1C44.996 1 30.0501 3.10323 20.656 11.829C11.262 20.5548 1.98282 32.5026 1.9828 48.7461Z" fill="white" stroke="white"/>
<path d="M47.1917 190.508H100.754V143.254C100.754 129.964 91.5913 115.103 80.1155 105.845C69.4649 98.5674 64.6282 96.3575 51.1229 95.5078C35.071 95.8201 26.7818 98.6366 13.7764 110.275C6.50225 117.941 1 129.706 1 139.808C1 152.344 5.06532 165.839 13.7764 175.249C22.4875 184.659 30.9754 190.508 47.1917 190.508Z" fill="white" stroke="white"/>
</svg>
